<?xml version="1.0" encoding="UTF-8"?>
<svg version="1.1" xmlns="http://www.w3.org/2000/svg" width="1454" height="1531">
    <path d="M 3.3789062,-0.04882812 0,0 c -6.1655378,-0.01781947 -12.954558,-0.73222839 -18.5,2.3125 -3.313888,3.9819271 -4.458815,6.9464894 -4.498047,12.130859 l 0.04492,2.34375 c -0.0019,2.631159 0.0022,5.261553 0.03125,7.892579 0.02161,1.876164 0.03557,3.752631 0.04297,5.628906 0.01036,4.921478 0.03462,9.842371 0.07813,14.763672 0.04536,5.098135 0.07289,10.194678 0.09375,15.292968 0.03926,9.917008 0.09855,19.835201 0.179687,29.751954 L -22.5,93.302734 c -37.132724,-0.02234 -74.2657,-0.04041 -111.39844,-0.05078 -4.47515,-0.0012 -8.95063,-6.53e-4 -13.42578,-0.002 l -2.70312,-0.002 c -14.47493,-0.0042 -28.9489,-0.01033 -43.42383,-0.01953 -14.89997,-0.0095 -29.79924,-0.01733 -44.69922,-0.01953 -9.18397,-0.0013 -18.36877,-0.0036 -27.55273,-0.01172 -6.35202,-0.0056 -12.70463,-0.0083 -19.05665,-0.0078 -3.66595,8e-4 -7.33209,0.0023 -10.99804,-0.002 -3.40005,-0.005 -6.79917,-0.0092 -10.19922,-0.0078 l -3.71094,0.0039 -3.49023,-0.0098 -3.17969,0.0059 c -5.32398,-0.0022 -9.16086,0.379943 -13.16211,4.123046 -3.36733,4.903286 -3.36733,4.903296 -3.36133,15.121096 l 0.0488,3.3789 c -0.0178,6.16554 -0.73223,12.95456 2.3125,18.5 3.14413,2.50928 5.34799,3.89444 9.34375,4.54688 l 3.58594,0.0625 c 1.97081,0.0492 3.94275,0.0975 5.91406,0.11914 1.36565,0.0141 2.73027,0.0363 4.0957,0.0644 3.1645,0.0733 6.32909,0.13549 9.49414,0.17969 l 2.56641,0.0273 c 2.76178,5.57582 5.56707,11.12212 8.48633,16.61719 3.9425,7.41061 7.78356,14.86307 11.51367,22.38281 2.8276,5.70432 5.70523,11.37328 8.69922,16.99219 3.59458,6.73505 7.04949,13.50264 10.30664,20.4082 4.07169,8.65889 8.2915,17.16736 12.93164,25.53711 4.38044,7.88078 8.51358,15.84998 12.5,23.9375 1.39985,2.87077 2.80529,5.73747 4.25,8.58594 l 1.3125,2.53906 c 1.46213,2.89513 2.92379,5.50235 5,8 4.35498,3.04874 8.65525,4.45468 14.00586,4.51758 l 2.16992,-0.0351 c 2.49369,0.0111 4.98486,0.0141 7.47852,-0.006 1.82201,-0.0154 3.64471,-0.0224 5.46679,-0.0234 4.97079,0.006 9.94138,-0.002 14.91211,-0.0293 5.27866,-0.0291 10.5572,-0.0419 15.83594,-0.0469 9.97051,-0.009 19.94168,-0.0343 29.91211,-0.0742 13.69041,-0.0548 27.37982,-0.0837 41.070312,-0.10742 8.622408,-0.0148 17.244789,-0.0343 25.867188,-0.0547 L -22.5,288.30273 v 109 c -27.445357,-0.0239 -54.890578,-0.0456 -82.33594,-0.0723 l -2.05273,-0.002 c -23.85852,-0.0233 -47.71766,-0.0516 -71.57617,-0.082 l -2.35743,-0.002 c -16.92516,-0.0216 -33.85023,-0.0434 -50.77539,-0.0664 -8.30804,-0.0113 -16.61578,-0.0221 -24.92382,-0.0332 l -2.50782,-0.004 c -26.84993,-0.0358 -53.70083,-0.063 -80.55078,-0.084 -27.63423,-0.0215 -55.26812,-0.0501 -82.90234,-0.0937 -3.89925,-0.006 -7.79801,-0.0135 -11.69727,-0.0195 l -2.32617,-0.004 c -12.35924,-0.019 -24.71886,-0.0282 -37.07812,-0.0332 -12.47856,-0.005 -24.95701,-0.0184 -37.43555,-0.0449 -6.09837,-0.0132 -12.19654,-0.0274 -18.29492,-0.0254 -6.30974,0.004 -12.61996,0.004 -18.92969,-0.0137 -2.28772,-0.008 -4.57555,-0.0165 -6.86328,-0.0215 -3.17571,0.008 -6.34971,0.0157 -9.52539,0.002 l -2.84571,-0.0156 c -3.07556,0.0219 -5.94755,-0.0879 -9.02148,-0.38477 -1.97524,-1.64329 -3.06498,-3.10569 -4.4043,-5.31445 l -1.45898,-2.75195 -1.66602,-3.11914 c -1.21331,-2.29769 -2.43192,-4.59188 -3.65429,-6.88477 -0.96958,-1.81744 -1.9376,-3.6361 -2.9043,-5.45508 -2.72759,-5.13483 -5.47831,-10.25644 -8.23633,-15.375 l -1.73828,-3.22461 c -2.8537,-5.30102 -5.7061,-10.60219 -8.57227,-15.89648 l -1.60742,-2.96289 c -1.0646,-1.96381 -2.1297,-3.92736 -3.19531,-5.89063 -2.86944,-5.265 -5.73691,-10.528 -8.50781,-15.8457 -1.34833,-2.59449 -2.70075,-5.18782 -4.0586,-7.77734 -0.66673,-1.27056 -1.33227,-2.54237 -1.99609,-3.81446 -0.62939,-1.2297 -1.2591,-2.4579 -1.88867,-3.6875 l -1.79883,-3.42578 c -2.20831,-4.27038 -3.89612,-6.54194 -8.3125,-8.57422 -5.59367,-1.11697 -10.221,0.0733 -15.12695,2.79297 l -1.99805,1.20703 c -5.7705,3.40326 -11.79144,6.79716 -14.875,13 -1.16452,4.834 -0.63209,7.87818 1.80859,12.2168 1.38001,2.37242 2.71213,4.7506 4.01563,7.16797 0.96308,1.82307 1.92606,3.64451 2.89062,5.4668 l 1.07227,2.02539 c 5.31078,10.04683 10.61997,20.09294 16.08203,30.05859 7.18853,13.08619 14.10497,26.30393 20.93945,39.57813 1.25586,2.44119 2.51299,4.88243 3.77149,7.32226 0.61939,1.20055 1.23886,2.40058 1.85742,3.60156 2.57176,5.02298 5.18484,10.01973 7.87109,14.98243 l 1.22657,2.11523 c 1.01587,1.76587 1.01587,1.76587 2.46484,3.46484 4.35752,3.64918 7.38097,4.4654 13.02539,4.52539 l 2.77149,-0.0332 c 3.16255,0.014 6.32374,0.0238 9.48632,0.008 2.33384,-0.0129 4.66808,-0.0176 7.00196,-0.0156 5.75544,0.0123 11.51018,0.0167 17.26562,0 7.71726,-0.0242 15.43504,-0.0323 23.15234,-0.0293 12.98111,0.006 25.96228,-0.004 38.94336,-0.0273 12.91978,-0.0237 25.83997,-0.0419 38.75977,-0.0469 h 2.42969 c 4.07391,-0.002 8.14679,-0.003 12.2207,-0.004 28.85937,-0.008 57.71878,-0.0346 86.57813,-0.0723 28.08911,-0.0368 56.17845,-0.067 84.26757,-0.084 l 2.625,-0.002 c 8.7046,-0.005 17.40867,-0.009 26.11328,-0.0137 17.75064,-0.0101 35.50131,-0.0212 53.25196,-0.0332 l 2.47461,-0.002 c 47.88452,-0.0323 95.769801,-0.0853 143.654294,-0.14258 L -22.5,435.30273 v 68 c -35.572665,-0.0861 -71.144055,-0.15977 -106.7168,-0.20117 -4.29027,-0.005 -8.58083,-0.0106 -12.87109,-0.0156 l -2.5918,-0.004 c -13.86559,-0.017 -27.73209,-0.0453 -41.59765,-0.082 -14.27659,-0.0379 -28.55148,-0.0633 -42.82813,-0.0723 -8.79882,-0.005 -17.59771,-0.0162 -26.39648,-0.0488 -6.08569,-0.0226 -12.17209,-0.0352 -18.25782,-0.0332 -3.51594,0.003 -7.03096,0.009 -10.54687,-0.008 -3.25434,-0.0201 -6.50925,-0.0304 -9.76367,-0.0254 l -3.57227,0.01 c -6.81633,-0.0726 -12.24604,0.0187 -18.29883,3.3789 -3.43691,2.42999 -5.05279,5.29901 -6.17968,9.31445 -1.33336,5.6518 -2.75779,11.2766 -4.24805,16.88868 l -0.70508,2.64453 c -0.49982,1.87845 -1,3.75636 -1.5,5.63476 -5.6607,21.24366 -11.27095,42.50123 -16.8457,63.76758 l -0.51758,1.97656 c -3.82937,14.60538 -7.65325,29.21173 -11.46289,43.82227 -2.14643,8.23234 -4.29521,16.46495 -6.44922,24.69531 l -0.65039,2.48242 c -2.76398,10.56201 -5.53289,21.12201 -8.32812,31.67579 -7.02292,26.50148 -13.99206,53.01769 -20.89454,79.55078 -0.66606,2.56039 -1.3328,5.11959 -2,7.67968 -3.95378,15.16524 -7.98139,30.31301 -11.53515,45.57813 -1.2962,5.57632 -2.67873,11.10958 -4.23633,16.61914 l -0.68164,2.38086 c -0.87285,3.04866 -1.75121,6.09562 -2.63672,9.14062 -2.15193,7.31274 -4.83772,14.80496 -5.29297,22.45313 0.56794,3.56153 1.14865,5.83985 3.56836,8.54687 3.4731,2.13125 3.47202,2.13142 15.1875,2 1.57603,-0.0189 3.15238,-0.0264 4.72852,-0.0234 4.3497,0.0205 8.69916,0.0174 13.04882,-0.0117 4.75403,-0.0322 9.50759,-0.0372 14.26172,-0.0332 8.2325,0.008 16.46483,-0.002 24.69727,-0.0332 12.0151,-0.0487 24.02972,-0.076 36.04492,-0.084 19.4623,-0.0122 38.9245,-0.0456 58.38672,-0.10157 18.97587,-0.0551 37.95179,-0.1028 56.92773,-0.1289 l 3.54883,-0.004 c 5.88189,-0.008 11.76263,-0.0154 17.64453,-0.0234 44.90406,-0.0571 89.808951,-0.1463 134.712894,-0.26563 L -22.5,902.30273 v 63 c -53.572161,-0.0441 -107.14463,-0.0808 -160.7168,-0.10156 -6.45433,-0.003 -12.90896,-0.005 -19.36328,-0.008 l -3.89844,-0.002 c -20.88412,-0.009 -41.76822,-0.0226 -62.65234,-0.041 -21.49476,-0.0189 -42.9896,-0.0312 -64.48437,-0.0352 -13.2495,-0.002 -26.49856,-0.009 -39.74805,-0.0254 -9.16384,-0.0115 -18.32834,-0.0166 -27.49219,-0.0156 -5.2863,0.002 -10.57113,0.005 -15.85742,-0.004 -4.90733,-0.01 -9.81532,-0.0177 -14.72266,-0.0137 -1.78037,0.002 -3.56141,0.003 -5.34179,0.004 -2.46919,-0.009 -4.93704,-0.0167 -7.40625,-0.0117 l -2.2168,0.008 c -4.46508,-0.003 -6.36474,-0.24382 -10.09961,2.24609 -3.95366,4.50317 -4.47382,7.99075 -4.44922,13.74805 l 0.0742,2.81445 c 0.007,5.23459 -0.55347,10.89245 2.375,15.4375 3.22088,2.58337 5.38335,3.91187 9.50195,4.49607 h 3.95117 c 2.34581,0.02 4.69129,0.026 7.03711,0.01 1.72819,-0.016 3.45537,-0.016 5.1836,-0.016 4.77083,0.01 9.54168,0.01 14.3125,-0.01 5.21383,-0.023 10.42871,-0.023 15.64258,-0.023 9.02952,0.01 18.05839,-5e-4 27.08789,-0.022 13.17743,-0.032 26.35378,-0.045 39.53125,-0.055 21.34599,-0.01 42.6931,-0.031 64.03906,-0.068 20.81169,-0.037 41.62383,-0.069 62.43555,-0.086 h 3.89062 c 6.45141,-0 12.90405,-0.016 19.35547,-0.016 53.76061,-0.042 107.520696,-0.1092 161.28125,-0.1992 h 2.75 c -0.02106,6.9258 -0.03812,13.8515 -0.04883,20.7773 -0.005,3.5327 -0.0093,7.0651 -0.01953,10.5977 -0.01107,3.4589 -0.02159,6.918 -0.02539,10.3769 l -0.0039,3.9512 -0.01563,3.8476 v 3.5782 c -0.01196,5.5988 0.169043,9.6548 4.113281,13.8711 4.903288,3.3713 4.903288,3.3713 15.1210938,3.3613 L 0,1073.627 c 6.1655378,0.018 12.954558,0.7322 18.5,-2.3125 4.626387,-4.7796 4.627295,-4.7803 4.423828,-18.1172 -0.02166,-1.3626 -0.03752,-2.7252 -0.04492,-4.0879 -0.01034,-3.5794 -0.03258,-7.1591 -0.07617,-10.7383 -0.04542,-3.7058 -0.07486,-7.4111 -0.0957,-11.1172 -0.03921,-7.2093 -0.0994,-14.4179 -0.179687,-21.6269 L 22.5,1003.3145 c 53.397409,0.089 106.79589,0.1601 160.19336,0.2011 6.43553,0 12.87111,0 19.30664,0.014 h 3.88672 c 20.81513,0.017 41.63021,0.045 62.44531,0.082 21.42655,0.038 42.85273,0.064 64.2793,0.074 13.20678,0 26.41435,0.014 39.62109,0.047 9.13434,0.022 18.26798,0.033 27.40235,0.033 5.27195,-10e-4 10.54447,-0.01 15.8164,0.01 4.88921,0.017 9.77677,0.037 14.66602,0.027 1.77884,0 3.55905,-0.01 5.33789,-0.01 2.4574,0.015 4.91364,0.036 7.37109,0.025 l 2.22071,-0.014 c 5.82552,0.01 8.87454,-0.8213 13.45312,-4.4922 2.24734,-3.45492 2.24734,-3.45492 2.27344,-12.70898 L 460.75,983.75 l 0.0234,-2.86523 -0.008,-2.76368 c -0.01,-3.51678 -0.29938,-5.85071 -2.26562,-8.80859 -2.81203,-2.77125 -4.43623,-3.91848 -8.38477,-4.49805 l -3.96093,0.006 c -2.35063,-0.014 -4.70012,-0.0238 -7.05078,-0.008 -1.73355,0.0129 -3.46758,0.0176 -5.20118,0.0156 -4.7825,-0.0135 -9.56516,-0.0116 -14.34765,0.008 -5.22788,0.0218 -10.45568,0.0264 -15.6836,0.0234 -9.05241,-0.005 -18.10386,3.8e-4 -27.15625,0.0215 -13.21275,0.0324 -26.42588,0.0497 -39.63867,0.0547 -21.40135,0.008 -42.8018,0.031 -64.20312,0.0684 -20.86734,0.0367 -41.73616,0.0685 -62.60352,0.0859 l -3.90039,0.002 c -6.46773,0.005 -12.93657,0.0106 -19.4043,0.0156 -49.37885,0.0381 -98.757912,0.0982 -148.136715,0.17774 L 22.5,965.3125 v -63 c 48.68643,0.13239 97.37202,0.24034 146.05859,0.30273 5.86741,0.008 11.73612,0.0135 17.60352,0.0215 l 3.54297,0.006 c 18.9789,0.0256 37.95867,0.0679 56.9375,0.12304 19.5359,0.0567 39.07144,0.0963 58.60742,0.10938 12.04161,0.008 24.08348,0.0236 36.125,0.0723 8.32844,0.0337 16.65586,0.0518 24.98438,0.0488 4.80641,-0.005 9.61356,-0.0122 14.41992,0.0137 4.45833,0.0301 8.9146,0.0544 13.37304,0.041 1.62123,-0.008 3.244,-0.0126 4.86524,-0.0156 4.16329,0.0496 8.28535,0.0393 12.44531,-0.16993 3.176,-0.57757 4.37884,-1.06085 6.4668,-3.46484 3.41741,-6.72224 3.41776,-6.72192 -0.72266,-20.93555 -2.17686,-7.17032 -4.32236,-14.33494 -6.00976,-21.63867 -2.71119,-11.841 -2.7102,-11.84168 -9.17969,-36.46484 -0.7285,-2.77218 -1.457,-5.54374 -2.1836,-8.31641 -6.74377,-25.73533 -13.52625,-51.46057 -20.32421,-77.18164 C 373.73089,712.99923 367.89362,691.1505 362.5,669.1875 c -1.87986,-7.70264 -3.82769,-15.36703 -6.0332,-22.98242 -3.11884,-10.75416 -6.04209,-21.5511 -8.86328,-32.38672 -0.49668,-1.90869 -0.99403,-3.81631 -1.49219,-5.72461 -1.06175,-4.06491 -2.12293,-8.12961 -3.18164,-12.19531 -1.34883,-5.18246 -2.6982,-10.3659 -4.05274,-15.54688 -1.06683,-4.08018 -2.13326,-8.15931 -3.19726,-12.24023 -0.51844,-1.9898 -1.03619,-3.98093 -1.55469,-5.97071 -2.27117,-8.6992 -4.59746,-17.38814 -6.64844,-26.14257 l -0.88672,-3.86328 c -0.51341,-2.23665 -1.02298,-4.4742 -1.52734,-6.71289 -1.2444,-5.94845 -2.73529,-11.03866 -5.77734,-16.32422 -5.31368,-5.31459 -11.14348,-6.24439 -18.33008,-6.30078 l -3.3125,0.0351 c -3.76785,-0.0111 -7.5349,-0.016 -11.30274,0.004 -3.47237,0.0218 -6.94556,0.0264 -10.41796,0.0234 -6.01931,-0.005 -12.03741,3.8e-4 -18.05665,0.0215 -8.77677,0.0325 -17.55324,0.0497 -26.33007,0.0547 -14.22467,0.008 -28.4492,0.031 -42.67383,0.0684 -13.86206,0.0368 -27.72385,0.0685 -41.58594,0.0859 l -2.5957,0.002 c -4.3008,0.005 -8.60156,0.0106 -12.90235,0.0156 -27.68638,0.0321 -55.372262,0.0764 -83.05859,0.14063 L 22.5,503.3125 v -68 c 54.44404,0.0167 108.88799,0.0333 163.33203,0.043 h 2.46875 c 17.72266,0.003 35.44532,0.005 53.16797,0.008 8.69942,0.001 17.4002,0.003 26.09961,0.004 h 2.625 c 28.11784,0.004 56.23566,0.0125 84.35352,0.0215 28.93808,0.009 57.87636,0.0156 86.81445,0.0176 4.08261,2.9e-4 8.16544,0.002 12.24805,0.002 h 2.43554 c 12.94341,9e-4 25.88668,0.004 38.83008,0.01 13.06723,0.006 26.13394,0.009 39.20117,0.008 7.7691,-10e-4 15.53951,-1.4e-4 23.3086,0.006 5.22476,0.004 10.44906,0.006 15.67382,0.004 2.39411,-0.002 4.78753,-0.003 7.18164,-0.004 3.32699,0.004 6.65347,0.0108 9.98047,0.008 l 2.97461,-0.004 c 3.10904,0.009 6.19592,-0.0257 9.30469,-0.12305 6.91055,-3.45527 9.59595,-8.39536 12.99609,-15.12305 1.24381,-2.52672 2.49754,-5.04787 3.76953,-7.56054 0.67853,-1.33985 1.35692,-2.67953 2.03516,-4.01953 3.77727,-7.50415 7.67294,-14.9392 11.62695,-22.35157 0.717,-1.34372 1.43452,-2.68694 2.15039,-4.03125 3.75998,-7.06278 7.53013,-14.12079 11.30469,-21.17578 1.24764,-2.32929 2.49504,-4.65872 3.74219,-6.98828 3.12663,-5.86542 6.24189,-11.73562 9.48242,-17.53906 1.43207,-2.55775 2.85853,-5.1174 4.27539,-7.6836 0.68309,-1.23905 1.36762,-2.478 2.05469,-3.71484 4.21079,-7.37555 7.80804,-13.12807 6.5625,-21.8125 -2.22636,-5.31453 -2.22636,-5.31453 -12.77539,-11.76172 L 657.625,290.3125 c -5.09376,-3.07717 -9.06,-4.44386 -15.05078,-4.33594 -3.49913,0.56685 -5.45041,1.49591 -7.58594,4.3711 l -1.39844,2.47265 -1.55859,2.72657 -1.53125,2.76562 c -1.35724,2.41881 -2.70392,4.84198 -4.03125,7.27734 l -1.40625,2.59766 c -5.04835,9.28743 -10.04307,18.60281 -15.02539,27.92578 -4.20025,7.85995 -8.43731,15.69889 -12.72461,23.51172 -2.51951,4.58568 -5.02512,9.17735 -7.44531,13.81641 l -1.67188,3.23828 c -1.0876,2.10591 -2.17358,4.21266 -3.25781,6.32031 l -1.51758,2.99219 -1.42383,2.76953 c -1.14234,2.24726 -2.21976,4.21824 -3.82812,6.1582 -3.69257,1.9102 -3.69334,1.91104 -8.01953,1.79688 l -2.66992,-0.0195 c -3.01899,0.0168 -6.03761,0.0275 -9.05664,0.0215 -2.23289,-0.005 -4.4644,-0.005 -6.69727,0 -6.14915,0.0212 -12.29809,0.0323 -18.44727,0.0293 -6.72633,-0.004 -13.45337,0.005 -20.17968,0.0195 -12.40523,0.0268 -24.80959,0.0419 -37.21485,0.0469 -12.35132,0.004 -24.70337,0.0125 -37.05469,0.0312 l -2.32226,0.004 c -3.89216,0.006 -7.78361,0.0116 -11.67578,0.0176 -27.58168,0.0437 -55.16243,0.0761 -82.74414,0.0976 -26.84905,0.0209 -53.69981,0.0463 -80.54883,0.082 l -2.50781,0.004 c -8.31792,0.0111 -16.63521,0.0219 -24.95313,0.0332 -16.96249,0.023 -33.92618,0.0447 -50.88867,0.0664 l -2.36523,0.004 c -23.92638,0.0306 -47.85292,0.0567 -71.7793,0.0801 l -2.1543,0.002 c -42.194545,0.0392 -42.194111,0.0399 -84.38867,0.0762 v -109 c 21.366513,0.0728 42.733073,0.15161 64.099609,0.18945 13.567351,0.0233 27.133901,0.0465 40.701171,0.0996 10.03663,0.0402 20.07268,0.0716 30.10938,0.084 5.3038,0.005 10.60836,0.008 15.91211,0.0332 5.06968,0.028 10.13921,0.0518 15.20898,0.0508 1.87307,-0.002 3.74606,-0.003 5.61914,-0.002 2.60115,0.022 5.20151,0.0441 7.80273,0.0371 l 2.3711,-0.0117 c 1.40765,0.0229 2.81687,0.0282 4.22461,0.0117 5.27418,-0.65691 10.0054,-2.39545 13.67969,-6.35547 l 1.01171,-1.89453 1.16993,-2.11328 1.08984,-2.12891 c 1.05284,-1.93603 2.09595,-3.87301 3.10547,-5.83203 l 1.03906,-2.04297 c 1.16347,-2.26661 2.32664,-4.5332 3.48438,-6.80273 0.78265,-1.53432 1.56582,-3.06884 2.35156,-4.60157 3.78896,-7.38365 7.55587,-14.77638 11.25976,-22.20312 2.78187,-5.58347 5.57922,-11.1547 8.50977,-16.66211 3.42219,-6.40472 6.76854,-12.84064 10.00391,-19.3418 3.20179,-6.45375 6.41837,-12.89141 9.79492,-19.25586 6.67427,-12.5465 13.00003,-25.26293 19.32422,-37.98828 L 295.5,139.3125 c 3.35524,-0.0574 6.70972,-0.12658 10.06445,-0.20898 1.37432,-0.0358 2.74867,-0.0703 4.12305,-0.10352 1.35482,-0.0225 2.70964,-0.0453 4.06445,-0.0684 l 3.91602,-0.10742 c 4.87258,-0.10733 7.89684,-0.54285 11.83203,-3.51172 3.3085,-5.32169 3.3417,-10.17579 3.3125,-16.35547 L 332.75,115.5625 c -0.0322,-7.09599 0.91799,-13.73747 -4.25,-19.25 -5.28981,-2.968928 -9.7081,-3.352649 -15.72852,-3.386719 l -3.46484,0.02539 c -3.92567,-0.0083 -7.84975,-0.0134 -11.77539,0.0039 -3.62005,0.01611 -7.24124,0.01948 -10.86133,0.01758 -6.27341,-0.0039 -12.54692,-2.25e-4 -18.82031,0.01563 -9.14988,0.02435 -18.29931,0.03692 -27.44922,0.04102 -14.82695,0.0061 -29.65355,0.02273 -44.48047,0.05078 -14.45119,0.02757 -28.9023,0.0514 -43.35351,0.06445 l -2.70508,0.0039 c -4.48234,0.004 -8.96297,0.0079 -13.44531,0.01172 -37.335345,0.03114 -74.67253,0.08131 -112.007817,0.148438 L 22.5,93.3125 c 0.02104,-9.651038 0.03812,-19.30207 0.04883,-28.953125 0.005,-4.920047 0.0093,-9.839726 0.01953,-14.759766 0.01106,-4.820131 0.02159,-9.640794 0.02539,-14.460937 0.001,-1.832744 0.002,-3.665304 0.0039,-5.498047 0.0078,-2.640447 0.01493,-5.281416 0.01563,-7.921875 V 19.292969 C 22.642948,13.084623 22.934768,8.0531142 18.5,3.3125 13.596712,-0.0549174 13.596712,-0.0549174 3.3789062,-0.04882812 Z M -246.5,138.3125 h 493 c -1.25168,3.75505 -2.30128,6.85365 -4.03125,10.29297 l -1.18945,2.375 L 240,153.5 l -1.35547,2.68945 c -3.2347,6.39276 -6.54881,12.74032 -9.9043,19.07032 -4.26921,8.06796 -8.44126,16.18524 -12.61523,24.30273 -5.06346,9.84372 -10.13243,19.68425 -15.25,29.5 l -1.35742,2.60547 C 195.90579,238.58393 192.2,245.44108 188.5,252.3125 h -377 l -15,-29 c -4.08781,-7.88621 -8.17546,-15.77127 -12.26562,-23.65625 -1.74361,-3.36151 -3.48736,-6.72418 -5.23047,-10.08594 l -1.75391,-3.38476 c -1.15743,-2.23264 -2.3163,-4.46408 -3.47266,-6.69727 -2.73547,-5.28114 -5.47597,-10.55995 -8.23632,-15.82812 -1.30593,-2.4932 -2.60757,-4.98749 -3.91016,-7.48243 -0.92251,-1.76379 -1.85025,-3.5257 -2.77734,-5.28711 l -1.68555,-3.23046 -1.49219,-2.84375 C -245.50073,142.31226 -245.5,142.3125 -246.5,138.3125 Z m 420.99023,402.45508 c 13.18387,-0.0114 26.36888,-0.008 39.55274,0.0137 6.73243,0.0107 13.46483,0.0132 20.19726,0 6.15466,-0.0119 12.30827,-0.006 18.46289,0.0156 2.23481,0.004 4.47029,0.004 6.70508,-0.006 3.02176,-0.0121 6.0408,-0.001 9.0625,0.0176 l 2.67188,-0.0273 c 5.87222,0.0734 5.87316,0.0722 8.375,2.43945 0.96537,2.05448 1.70539,3.94792 2.26953,6.14649 l 0.63672,2.42187 0.66015,2.63282 0.72657,2.79687 c 0.79314,3.06405 1.57318,6.13189 2.35351,9.19922 0.55621,2.15747 1.11395,4.31562 1.67188,6.47265 1.4742,5.70802 2.93748,11.4175 4.39844,17.12891 2.30826,9.01597 4.63199,18.02885 6.95507,27.04102 0.84527,3.28134 1.68992,6.56189 2.53321,9.84375 3.61031,14.02688 7.3269,28.02024 11.25781,41.96093 l 1.02148,3.66016 0.88477,3.125 c 0.61392,2.66118 0.61328,2.66211 0.61328,6.66211 h -631 c 0.68639,-5.49115 1.49093,-10.41072 2.94922,-15.67188 l 0.62109,-2.30273 c 0.70093,-2.59328 1.40954,-5.18394 2.11719,-7.77539 1.07983,-3.98191 2.15419,-7.96529 3.22656,-11.94922 l 0.91602,-3.4043 c 2.72843,-10.17095 5.37751,-20.36193 8.01562,-30.55664 0.7402,-2.85914 1.48268,-5.71748 2.22461,-8.57617 l 0.7461,-2.875 c 0.49941,-1.92424 0.99856,-3.84921 1.49804,-5.77344 1.25147,-4.82371 2.49936,-9.64815 3.74024,-14.47461 1.18735,-4.61796 2.38196,-9.23348 3.58398,-13.84765 0.44818,-1.72711 0.89441,-3.45478 1.33594,-5.18359 0.61036,-2.38824 1.23111,-4.7736 1.85547,-7.15821 l 0.5332,-2.12305 c 2.29767,-8.65173 4.89524,-9.92518 13.66602,-9.83203 l 2.8457,-0.0176 c 3.17853,-0.0147 6.35663,-4e-5 9.53516,0.0137 2.28972,-0.005 4.57943,-0.0116 6.86914,-0.0195 6.31538,-0.0168 12.62992,-0.008 18.94531,0.004 6.10392,0.01 12.20858,-0.002 18.3125,-0.0117 13.26003,-0.0211 26.51926,-0.0194 39.7793,-0.008 11.60384,0.01 23.20865,0.0126 34.8125,0.008 l 2.33007,-0.002 c 3.12049,-0.001 6.24084,-6.3e-4 9.36133,-0.002 29.291177,-0.0122 58.581883,-0.002 87.873049,0.0195 26.041192,0.019 52.081856,0.0172 78.123047,-0.002 29.236533,-0.0214 58.474398,-0.0299 87.710934,-0.0176 3.11491,0.001 6.22885,0.003 9.34375,0.004 h 2.32422 c 11.59846,0.005 23.19647,3.3e-4 34.79492,-0.01 z M -325.5,720.3125 h 651 l 11,42 c 1.87745,7.11936 3.75595,14.23752 5.63867,21.35547 1.57342,5.95588 3.13934,11.91514 4.70508,17.87305 1.35598,5.15817 2.71493,10.31546 4.08203,15.4707 1.35668,5.11664 2.70399,10.23467 4.04492,15.35547 0.50542,1.92343 1.01511,3.84594 1.52735,5.76758 0.70476,2.64586 1.39783,5.29558 2.08789,7.94531 l 0.63672,2.36328 c 1.00098,3.89679 1.27686,5.87108 0.27734,9.86914 h -719 c -0.96107,-3.84427 -1.04078,-4.8192 -0.10352,-8.40625 l 0.67774,-2.65625 0.77148,-2.89258 0.79297,-3.06836 c 0.87173,-3.36201 1.75712,-6.71971 2.64258,-10.07812 0.61323,-2.35318 1.22625,-4.70696 1.83789,-7.06055 1.61968,-6.22296 3.25123,-12.44278 4.88477,-18.66211 1.63397,-6.22997 3.25528,-12.46264 4.8789,-18.69531 5.78537,-22.18434 11.65675,-44.34171 17.61719,-66.48047 z" fill="#ED1C24" transform="translate(732.5,196.6875)"/>
</svg>
