<svg t="1773975707994" class="icon" viewBox="0 0 1024 1024" version="1.1" xmlns="http://www.w3.org/2000/svg" p-id="5860" width="200" height="200"><path d="M421.152 686.144c-1.76 0-3.552-0.16-5.344-0.448-65.12-10.976-120.448-33.248-164.384-66.208-69.536-52.16-112.768-134.208-112.768-214.144 0-52.576 18.304-103.776 52.992-148.384 1.184-8.64 1.184-28.928 1.184-44.192 0-69.344 2.08-112.832 30.912-131.84 13.216-8.672 29.152-9.76 44.864-3.008 16.704 7.168 32.608 16.736 47.968 25.984 28.704 17.248 55.968 33.6 77.696 28 81.536-20.736 172.192-19.104 252.096 4.608 13.984 3.968 63.648-23.072 87.52-36.096 15.008-8.192 29.472-16.064 42.336-22.048 23.104-10.72 39.648-1.504 45.664 2.944 27.072 20 21.376 61.12 13.536 118.016-2.464 17.888-6.08 44.064-5.408 54.784 36.224 45.312 55.328 97.504 55.328 151.328 0 84.256-39.68 164.32-106.144 214.144-38.496 28.928-87.84 49.792-146.688 62.016a32.224 32.224 0 0 1-37.856-24.832c-3.584-17.28 7.52-34.24 24.832-37.856 48.832-10.112 90.784-27.616 121.28-50.528 50.432-37.856 80.576-98.752 80.576-162.976 0-40.352-15.232-80-44-114.656-15.68-18.912-12.64-47.36-5.312-100.192 1.6-11.52 3.744-27.232 4.96-40.736-4.064 2.176-8.192 4.448-12.384 6.752-47.584 26.048-96.768 53.024-136.448 41.312-68.896-20.448-147.68-21.856-218.112-3.936-47.616 12.128-89.504-13.056-126.432-35.232-8.32-4.992-16.352-9.824-24.16-14.08-2.624 19.328-2.624 50.752-2.624 68.096 0 45.248-0.48 65.856-12.128 80.288-27.488 34.08-42.016 72.896-42.016 112.288 0 60.192 33.408 122.656 87.168 162.976 35.712 26.784 81.664 45.024 136.608 54.272a32 32 0 0 1-5.312 63.584z" p-id="5861" fill="#2c2c2c"></path><path d="M384.064 949.568a32 32 0 0 1-32-32v-185.952c0-32.576 15.264-65.888 45.376-99.04a32 32 0 1 1 47.392 43.072c-19.072 20.96-28.736 39.808-28.736 55.968v185.952c-0.032 17.696-14.368 32-32.032 32zM661.152 949.568a32 32 0 0 1-32-32v-184.608c0-16.896-9.92-38.848-28.608-63.36a32 32 0 1 1 50.848-38.816c28.064 36.8 41.728 70.24 41.728 102.176v184.608a31.936 31.936 0 0 1-31.968 32z" p-id="5862" fill="#2c2c2c"></path><path d="M384.032 832.384H294.912c-51.008 0-102.016-41.536-151.616-123.424-3.04-4.992-7.456-9.856-19.168-11.296a31.968 31.968 0 0 1-27.872-35.616 31.584 31.584 0 0 1 35.648-27.872c28.896 3.52 51.776 17.952 66.144 41.664 50.592 83.52 84.608 92.576 96.864 92.576h89.12a32 32 0 1 1 0 63.968z" p-id="5863" fill="#2c2c2c"></path></svg>