<?xml version="1.0" encoding="UTF-8"?>
<svg version="1.1" xmlns="http://www.w3.org/2000/svg" width="1137" height="1185">
    <path d="M0 0 C1.94459106 0.00918457 1.94459106 0.00918457 3.9284668 0.01855469 C16.11057666 0.21276332 27.73340159 1.89717557 39.625 4.4375 C40.39021973 4.59234863 41.15543945 4.74719727 41.94384766 4.90673828 C58.631238 8.29830107 75.05529976 13.57086297 90.625 20.4375 C91.93081152 20.97237787 93.23824145 21.50331411 94.546875 22.03125 C171.44811376 53.26061376 171.44811376 53.26061376 190.625 72.4375 C196.33791743 72.13145085 201.70732739 70.98682486 207.25 69.625 C256.29393114 57.72715448 309.23104317 54.11091587 359.5625 54.1875 C361.16146118 54.18879913 361.16146118 54.18879913 362.79272461 54.19012451 C379.56491285 54.2254528 396.29040439 54.74311924 413 56.25 C413.91152832 56.3312915 414.82305664 56.41258301 415.76220703 56.49633789 C424.53726128 57.3017468 433.30379155 58.19670944 442.06719971 59.11947632 C443.65909174 59.2866771 445.25116835 59.45213195 446.84344482 59.6156311 C457.87384636 60.75364191 468.73321263 62.35964192 479.625 64.4375 C480.6347287 64.62869919 480.6347287 64.62869919 481.66485596 64.82376099 C486.27980345 65.69943734 490.89031433 66.59700045 495.5 67.5 C499.37208512 68.25698121 503.24405285 69.01214005 507.12231445 69.73706055 C509.3227343 70.17708317 511.51305376 70.67570987 513.68041992 71.25708008 C518.70542955 72.52376739 521.75269575 72.86494572 526.37890625 70.31640625 C528.00176017 69.24049678 529.6038929 68.1328833 531.1875 67 C533.01667734 65.78216088 534.8488531 64.56881646 536.68359375 63.359375 C538.12387939 62.39547852 538.12387939 62.39547852 539.59326172 61.41210938 C544.85719781 57.98364142 550.29964378 54.87046947 555.75 51.75 C556.85722412 51.11489502 557.96444824 50.47979004 559.10522461 49.82543945 C583.68206184 35.79841091 608.89138613 23.79718976 635.625 14.4375 C637.00486084 13.95023438 637.00486084 13.95023438 638.41259766 13.453125 C652.09530999 8.67946021 665.85942283 5.48169621 680.11157227 2.89892578 C681.82442246 2.58447344 683.53369654 2.25004103 685.23925781 1.89819336 C706.35077025 -2.17849759 736.26772832 -2.23831729 754.4375 10 C762.37404389 16.24742522 767.55250292 23.80017427 770.63671875 33.37890625 C771.58455231 36.31231998 772.66284784 39.17389904 773.78125 42.04589844 C781.05698828 60.82639788 785.53249313 80.24527781 789.25 100 C789.45625 101.08716309 789.6625 102.17432617 789.875 103.29443359 C790.49566095 106.67028506 791.07230892 110.04986232 791.625 113.4375 C791.81698975 114.60659912 792.00897949 115.77569824 792.20678711 116.98022461 C793.98776874 129.25159337 793.97840668 141.49429409 793.9375 153.875 C793.93600952 154.98522522 793.93451904 156.09545044 793.9329834 157.23931885 C793.88279672 177.99375825 792.4973309 197.80532006 787.80761719 218.07763672 C786.81671619 222.49690358 786.20822709 226.01008465 787.625 230.4375 C789.14501962 232.62470381 790.64664722 234.55794556 792.375 236.5625 C817.09481232 266.65154422 835.11234082 304.81536144 844.625 342.4375 C844.8617041 343.35869629 845.0984082 344.27989258 845.34228516 345.22900391 C852.31026421 372.70817145 855.32860493 399.48530788 855.08038712 427.73318863 C855.06219248 429.97539759 855.05108071 432.21754567 855.0418396 434.45980835 C854.89637051 467.29296346 852.48613163 499.1026407 846.625 531.4375 C846.42116699 532.60023438 846.21733398 533.76296875 846.00732422 534.9609375 C843.55647966 548.91828955 840.49512691 562.49165696 836.34814453 576.04296875 C835.64048668 578.38621931 834.96840862 580.73662516 834.30859375 583.09375 C834.09783203 583.83874756 833.88707031 584.58374512 833.66992188 585.35131836 C833.11085582 587.3289471 832.55339854 589.30703045 831.99609375 591.28515625 C830.2790154 596.82496773 827.88900961 602.10510128 825.625 607.4375 C824.82369326 609.38934308 824.0254631 611.34245235 823.23046875 613.296875 C812.70845268 639.0116137 800.38380411 663.84983427 782.99804688 685.6953125 C781.66160034 687.39105974 780.36451927 689.10982698 779.078125 690.84375 C765.67995207 708.84165247 749.37827537 725.74358426 731.625 739.4375 C730.62082031 740.25863281 729.61664062 741.07976563 728.58203125 741.92578125 C699.39409661 765.71355508 665.16790423 784.00021246 629.79467773 796.65893555 C624.30227582 798.6298222 618.86528818 800.73337594 613.4375 802.875 C598.53578438 808.58167973 583.02841789 812.34647915 567.625 816.4375 C568.23754773 820.41740667 569.04820251 824.24671223 570.11328125 828.12890625 C574.64400889 845.1022851 577.87308773 861.9311059 579.625 879.4375 C579.74779264 880.65016588 579.74779264 880.65016588 579.87306595 881.88733006 C580.82730525 892.55331324 580.79563492 903.201609 580.81787109 913.90234375 C580.82578733 916.05062996 580.83405718 918.19891488 580.84265137 920.34719849 C580.8686735 927.35645308 580.88414894 934.3657131 580.8984375 941.375 C580.90380344 943.79824832 580.90918095 946.22149661 580.91456985 948.64474487 C580.93616044 958.72481267 580.9548974 968.80487899 580.96619225 978.88496399 C580.98244345 993.28709141 581.01569396 1007.68894973 581.07259309 1022.09097576 C581.11133706 1032.24592175 581.13082964 1042.40079585 581.13611281 1052.55581379 C581.13975714 1058.60975035 581.1516834 1064.66339856 581.18421555 1070.71725464 C581.21437824 1076.41050154 581.22057858 1082.10328667 581.20883179 1087.79659653 C581.20861181 1089.87781373 581.21685328 1091.95905294 581.23448563 1094.04019547 C581.32699047 1105.59282974 580.98982982 1114.96268865 575.625 1125.4375 C574.92616731 1126.84764122 574.92616731 1126.84764122 574.21321678 1128.28627014 C568.17780874 1139.94216055 557.43599465 1145.13853595 545.625 1149.4375 C531.88877509 1153.40345813 516.15139215 1150.48131101 503.75 1144.0625 C491.96274178 1136.9298081 486.81989252 1127.36637386 482.625 1114.4375 C482.295 1113.4475 481.965 1112.4575 481.625 1111.4375 C481.52290016 1108.3882274 481.47891629 1105.36148987 481.48023987 1102.31190491 C481.4749496 1100.89355863 481.4749496 1100.89355863 481.46955246 1099.44655889 C481.45884011 1096.26392826 481.45518 1093.08132752 481.45141602 1089.89868164 C481.44511244 1087.62217074 481.43834686 1085.34566109 481.43115234 1083.06915283 C481.41646517 1078.15825215 481.40474716 1073.24735629 481.39520454 1068.33644295 C481.37976508 1060.56594226 481.35581398 1052.79548247 481.33030701 1045.02500916 C481.29517124 1034.12401945 481.26208551 1023.22302686 481.23217773 1012.32202148 C481.23027724 1011.63005247 481.22837675 1010.93808346 481.22641867 1010.22514569 C481.1996303 1000.42174394 481.17574609 990.61833724 481.15303367 980.81492531 C481.15143637 980.12568501 481.14983906 979.43644472 481.14819336 978.72631836 C481.14659989 978.0379214 481.14500643 977.34952444 481.14336468 976.64026696 C481.11653902 965.13656098 481.08199933 953.63289586 481.04153961 942.12922949 C481.01482017 934.41110612 480.99688186 926.6930284 480.98550236 918.97486794 C480.9763469 914.16036555 480.9589705 909.3459183 480.93932343 904.53144836 C480.93187815 902.30632842 480.9277687 900.08119429 480.92732811 897.85606194 C480.98574238 882.0406691 480.98574238 882.0406691 478.625 866.4375 C478.36460937 865.29796875 478.10421875 864.1584375 477.8359375 862.984375 C472.17046865 844.02888109 461.67405559 828.52521044 448.23828125 814.25 C438.49818209 803.76738206 431.35874825 793.81485505 431.3125 779 C431.29574219 777.76378906 431.27898438 776.52757812 431.26171875 775.25390625 C431.68112032 770.84793494 432.8638358 767.45932132 434.625 763.4375 C434.90593506 762.78225342 435.18687012 762.12700684 435.47631836 761.4519043 C442.19881729 746.24986836 450.8031037 737.8396801 465.625 730.4375 C466.27331787 730.09082275 466.92163574 729.74414551 467.58959961 729.38696289 C474.23360563 726.0767901 480.87208546 725.32037559 488.1875 724.5 C490.87149512 724.1682293 493.55502236 723.83366951 496.23828125 723.49609375 C496.92683197 723.41077393 497.61538269 723.3254541 498.32479858 723.23754883 C526.18819058 719.76743323 553.55743758 714.63145896 580.36474609 706.14257812 C582.85282684 705.36643023 585.35131338 704.63047112 587.8515625 703.89453125 C593.64561864 702.16000133 599.08719785 699.8610458 604.625 697.4375 C605.33946289 697.13070312 606.05392578 696.82390625 606.79003906 696.5078125 C641.90602876 681.40164269 673.65368604 660.61777725 697.625 630.4375 C698.43195312 629.4475 699.23890625 628.4575 700.0703125 627.4375 C706.35983812 619.55094749 711.55487165 611.27985707 716.47412109 602.47949219 C717.50468366 600.650976 718.57227249 598.84344378 719.64453125 597.0390625 C726.95340548 584.2671397 731.64253966 570.23700202 736.625 556.4375 C736.92599609 555.61056641 737.22699219 554.78363281 737.53710938 553.93164062 C743.36915943 537.78480796 746.3784058 521.13113737 749.15576172 504.24316406 C749.46679589 502.38343216 749.79120182 500.5258838 750.12939453 498.67089844 C751.69080276 489.92880196 752.54115236 481.15630994 753.25 472.3125 C753.34755585 471.09794632 753.34755585 471.09794632 753.44708252 469.8588562 C757.32233174 420.16068578 754.88395706 370.05319124 730.60302734 325.26416016 C729.63479216 323.45578881 728.71317079 321.63005745 727.80078125 319.79296875 C719.67722594 303.65345489 708.96375157 289.01205629 697.02734375 275.49609375 C688.20632426 265.39228159 682.31786038 254.72779377 682.375 241 C682.36984375 239.76378906 682.3646875 238.52757812 682.359375 237.25390625 C682.84278386 230.30845832 685.0689677 223.87670834 687.13793945 217.26879883 C696.21561066 188.24278333 699.49310241 158.64640946 694.625 128.4375 C694.37363281 126.71660156 694.37363281 126.71660156 694.1171875 124.9609375 C693.10372804 118.09193447 691.9102914 111.26048305 690.625 104.4375 C666.57495141 108.63671483 644.11950062 118.4390056 622.85888672 130.20507812 C620.65605803 131.42036547 618.44133447 132.61081708 616.22265625 133.796875 C598.73869079 143.22235533 582.20216463 154.19705333 565.88671875 165.5 C562.86402644 167.5882654 559.83602682 169.66805948 556.79296875 171.7265625 C556.07520264 172.21334473 555.35743652 172.70012695 554.61791992 173.20166016 C544.48057664 179.48798035 532.01073761 176.20826649 521.15234375 173.80078125 C517.22282878 172.8756952 513.34816854 171.80076584 509.467453 170.69316101 C499.30904221 167.8011614 489.11022183 165.48069121 478.75 163.4375 C477.8989267 163.26796814 477.04785339 163.09843628 476.17098999 162.92376709 C463.64234584 160.44048681 451.09021627 158.30585326 438.4375 156.5625 C437.73538391 156.46517578 437.03326782 156.36785156 436.30987549 156.26757812 C432.14428099 155.69743688 427.97506784 155.17614356 423.79846191 154.69335938 C422.34675544 154.52246486 420.89595219 154.34371918 419.44616699 154.15722656 C402.57922925 152.00466479 385.67141064 152.12958007 368.70019531 152.17675781 C364.60537866 152.18805692 360.51082483 152.18143749 356.41601753 152.16987514 C330.15426054 152.10709854 303.80781982 152.37260536 277.89257812 157.05078125 C274.57721946 157.61619126 271.2480278 158.06127105 267.91552734 158.51269531 C250.60609865 160.86543319 233.65817629 164.33402829 216.6875 168.4375 C215.64619934 168.68867081 215.64619934 168.68867081 214.5838623 168.94491577 C207.36870515 170.69209297 200.21575647 172.53633996 193.1015625 174.66015625 C181.1368687 178.12422321 169.15948086 177.53692761 157.84375 172.1015625 C151.04446324 168.35464372 144.97346941 163.76237149 138.82714844 159.05737305 C131.72919303 153.66510834 124.26354567 149.01692835 116.625 144.4375 C115.29942909 143.63029056 113.9739084 142.82299864 112.6484375 142.015625 C93.87555102 130.67806079 74.63212153 121.21002768 54.12915039 113.41674805 C52.11098811 112.62754566 50.12516928 111.75591213 48.15234375 110.859375 C43.11985291 108.83077404 37.94323921 107.57127522 32.6875 106.25 C31.62208984 105.97736328 30.55667969 105.70472656 29.45898438 105.42382812 C26.84889524 104.7566753 24.23760526 104.09471707 21.625 103.4375 C21.53303345 104.54810791 21.53303345 104.54810791 21.43920898 105.68115234 C21.31267944 107.1499585 21.31267944 107.1499585 21.18359375 108.6484375 C21.0606897 110.09935791 21.0606897 110.09935791 20.93530273 111.57958984 C20.65845798 114.12934961 20.24098694 116.56079701 19.6875 119.0625 C16.49656766 134.48933829 16.28897495 149.7548544 16.57177734 165.46533203 C16.6029895 167.20834507 16.62733507 168.95154973 16.63525391 170.69482422 C16.72200029 188.41391542 22.39915531 206.35611231 27.70776367 223.11987305 C31.70008219 235.74569913 32.92323929 250.01817952 27.49609375 262.39453125 C24.58593596 267.12733483 20.78689569 270.65197584 16.74609375 274.41796875 C-12.94842442 302.38447515 -30.59423001 347.38753233 -38.375 386.4375 C-38.6227417 387.63463623 -38.6227417 387.63463623 -38.87548828 388.85595703 C-48.58077334 438.14515549 -41.02665968 496.47420201 -27.375 544.4375 C-27.15851807 545.21109863 -26.94203613 545.98469727 -26.71899414 546.78173828 C-15.77276542 585.14482634 3.54294802 620.05016286 31.625 648.4375 C32.19887451 649.02821289 32.77274902 649.61892578 33.36401367 650.22753906 C37.06742904 654.00405152 40.87947251 657.45230515 45.0625 660.6875 C45.65740234 661.15003174 46.25230469 661.61256348 46.86523438 662.08911133 C58.2147208 670.81483928 70.00237423 678.67087597 82.625 685.4375 C83.20588379 685.75251465 83.78676758 686.0675293 84.38525391 686.39208984 C100.79655926 695.22206134 118.41003309 702.4003622 136.39868164 707.27197266 C139.10377174 708.00777595 141.79120421 708.78081252 144.47021484 709.60644531 C154.95862292 712.8324569 165.480397 715.29089539 176.25 717.375 C177.10653168 717.54391754 177.96306335 717.71283508 178.84555054 717.88687134 C195.77031213 721.203109 212.79384922 723.43435559 229.93798828 725.27124023 C244.92333716 726.93886229 257.28819204 729.56268947 267.625 741.4375 C277.64612678 755.80741765 280.46826145 770.8815457 278.12890625 788.0859375 C275.81265208 799.10450255 271.62316121 806.68246738 263.91821289 814.78125 C251.47134864 827.95808072 242.06126251 844.83426353 237.125 862.25 C236.89401611 863.04075928 236.66303223 863.83151855 236.42504883 864.64624023 C232.06573068 881.56277516 232.33009875 899.76349039 232.36962891 917.11376953 C232.366869 919.17633705 232.36318313 921.2389035 232.35865784 923.3014679 C232.35063671 927.69203256 232.34835394 932.08254659 232.35060501 936.47311783 C232.35347092 943.42603867 232.33896904 950.37886063 232.32162476 957.33175659 C232.27489558 977.08508876 232.2506424 996.83841174 232.24414062 1016.59179688 C232.24038521 1027.54032974 232.22233037 1038.48874812 232.18904626 1049.4372319 C232.16891158 1056.3400752 232.16642116 1063.24262178 232.17732644 1070.1454823 C232.17994185 1074.44104613 232.16589148 1078.73643843 232.14724541 1083.03195763 C232.14194573 1085.01360001 232.14338187 1086.99527442 232.15228081 1088.97690392 C232.21772099 1104.83404205 230.27397187 1120.47369105 218.625 1132.4375 C206.5984362 1142.7916582 192.99438509 1146.64020032 177.41015625 1145.890625 C166.88083619 1145.06184131 157.9709688 1141.99628629 149.625 1135.4375 C148.614375 1134.756875 147.60375 1134.07625 146.5625 1133.375 C136.92398922 1124.89096266 132.51084844 1111.4716165 131.41197205 1099.02450562 C131.08483527 1092.74682848 131.16417633 1086.47085355 131.234375 1080.1875 C131.2418557 1078.19255141 131.24753995 1076.19759536 131.25152588 1074.20263672 C131.26663845 1069.00763877 131.30579243 1063.81310388 131.3503418 1058.61828613 C131.39160865 1053.29506693 131.4096033 1047.9717713 131.4296875 1042.6484375 C131.47230376 1032.24459066 131.54037589 1021.84108416 131.625 1011.4375 C131.03211276 1011.52488088 130.43922552 1011.61226175 129.828372 1011.70229053 C127.09976089 1012.10284726 124.37057118 1012.49932304 121.64135742 1012.89575195 C120.24279133 1013.10198559 120.24279133 1013.10198559 118.81597137 1013.31238556 C75.50565261 1019.57722148 31.14765777 1015.19297488 -9.375 998.4375 C-10.50204346 997.97682129 -10.50204346 997.97682129 -11.65185547 997.50683594 C-38.56328166 986.27694485 -61.63836027 967.59838851 -82.375 947.4375 C-83.47376465 946.37160645 -83.47376465 946.37160645 -84.59472656 945.28417969 C-92.19229265 937.88386759 -99.66366466 930.52028708 -106.21484375 922.1640625 C-108.80078869 918.9000669 -111.51979257 915.76827419 -114.25 912.625 C-118.75762288 907.41083079 -123.06507639 902.07455316 -127.29150391 896.63110352 C-133.81570852 888.25747171 -140.73796134 880.19812377 -147.78125 872.2578125 C-148.86455154 871.02051222 -149.92654182 869.76429454 -150.96875 868.4921875 C-159.69570682 857.99514038 -169.52484595 851.53076579 -182.30859375 847.05078125 C-190.42474892 844.1862559 -196.98200618 841.41847135 -203.375 835.4375 C-204.28958984 834.69113281 -204.28958984 834.69113281 -205.22265625 833.9296875 C-213.67217347 826.53868123 -218.6477095 814.36698672 -219.65625 803.37109375 C-220.35967481 787.63196365 -214.26896603 773.76943523 -203.75 762.1875 C-198.71623996 757.40001002 -192.60828787 754.3905301 -186.375 751.4375 C-185.60285156 751.05207031 -184.83070313 750.66664063 -184.03515625 750.26953125 C-172.05086464 746.52114048 -158.50328785 749.66823378 -147.375 754.4375 C-146.21266846 754.92017334 -146.21266846 754.92017334 -145.02685547 755.41259766 C-128.77725069 762.20257707 -114.12850143 770.38462109 -100.375 781.4375 C-99.58971924 782.06833496 -99.58971924 782.06833496 -98.78857422 782.71191406 C-85.22026363 793.71718657 -72.24885119 806.02827664 -61.49609375 819.8203125 C-58.99554697 822.90570172 -56.29660621 825.74795386 -53.5625 828.625 C-47.40023087 835.16475101 -42.12593757 842.24970088 -36.81445312 849.48388672 C-11.10012756 884.38314608 18.72728202 908.05886797 62.36328125 915.03515625 C65.79873601 915.33891377 69.17549623 915.4132565 72.625 915.4375 C74.50523282 915.49794099 76.38543875 915.55922122 78.265625 915.62109375 C93.75422585 915.9952606 108.52973899 914.4238109 123.78613281 911.8046875 C126.76281839 911.41967416 129.62688866 911.37533997 132.625 911.4375 C132.5935791 910.42441772 132.5935791 910.42441772 132.56152344 909.39086914 C131.72128629 877.60810145 134.9551511 846.26832956 146.625 816.4375 C145.07619141 816.10878906 145.07619141 816.10878906 143.49609375 815.7734375 C112.3900085 809.07967715 82.55813081 799.78323241 53.625 786.4375 C52.2642334 785.81875 52.2642334 785.81875 50.87597656 785.1875 C23.83211318 772.86420163 -3.61747124 756.74581082 -25.3815918 736.2902832 C-27.22934131 734.57288319 -29.11631442 732.92291041 -31.03125 731.28125 C-43.20828102 720.64970578 -54.6050611 709.06541698 -64.18505859 696.03320312 C-65.3576369 694.46078379 -66.57905047 692.92516608 -67.80078125 691.390625 C-128.36732818 615.27190254 -145.18398139 511.48214095 -140.9921875 395.28125 C-140.79124017 393.66606456 -140.58577476 392.05143241 -140.375 390.4375 C-140.23819824 389.32955078 -140.23819824 389.32955078 -140.09863281 388.19921875 C-135.94513018 355.84561932 -125.88943903 322.63966696 -111.375 293.4375 C-110.96169434 292.59461426 -110.54838867 291.75172852 -110.12255859 290.88330078 C-101.0258546 272.46067912 -90.29974055 253.95041141 -76.64453125 238.4765625 C-74.9623665 236.59936316 -74.9623665 236.59936316 -73.375 233.4375 C-73.51906251 231.4094422 -73.51906251 231.4094422 -74.140625 229.29296875 C-74.34018799 228.49785889 -74.53975098 227.70274902 -74.74536133 226.88354492 C-74.95314209 226.0763501 -75.16092285 225.26915527 -75.375 224.4375 C-75.70441487 222.96005091 -76.02618687 221.48087452 -76.33984375 220 C-76.57791748 218.88915039 -76.57791748 218.88915039 -76.82080078 217.75585938 C-81.56578037 195.38330419 -84.80426485 173.42302144 -84.75 150.5 C-84.74978851 149.66187775 -84.74957703 148.82375549 -84.74935913 147.9602356 C-84.71078935 132.49996715 -83.32196307 117.64070681 -80.375 102.4375 C-80.19839844 101.48746094 -80.02179688 100.53742188 -79.83984375 99.55859375 C-75.89661008 78.79089643 -68.83670606 58.83587399 -60.6875 39.375 C-60.24841309 38.32344727 -59.80932617 37.27189453 -59.35693359 36.18847656 C-52.5644183 20.39937 -44.72544908 9.9552332 -28.375 3.4375 C-18.94129694 0.75231642 -9.7729454 -0.0800479 0 0 Z " fill="#000000" transform="translate(227.375,15.5625)"/>
</svg>
