<svg t="1771157715656" class="icon" viewBox="0 0 1024 1024" version="1.1" xmlns="http://www.w3.org/2000/svg" p-id="15172" width="200" height="200"><path d="M183.84 272a30.56 30.56 0 1 1 0-60.96h348.32a30.56 30.56 0 0 1 0 60.96zM183.84 428.64a30.56 30.56 0 1 1 0-60.96h226.24a30.56 30.56 0 1 1 0 60.96zM183.84 585.76a30.4 30.4 0 0 1-30.56-31.04 32 32 0 0 1 30.56-32h147.04a30.56 30.56 0 0 1 30.56 32 31.04 31.04 0 0 1-30.56 31.04z" fill="#2c2c2c" p-id="15173"></path><path d="M752 472a268.32 268.32 0 1 0 267.68 268.32A268.64 268.64 0 0 0 752 472z m0 468.96a200.64 200.64 0 1 1 200-200.64A201.12 201.12 0 0 1 752 940.96z" fill="#2c2c2c" p-id="15174"></path><path d="M818.24 854.08a20.64 20.64 0 0 1-10.88-2.56l-56.32-40.8-56.16 40.8a22.72 22.72 0 0 1-33.28-24.48l19.68-67.04-54.88-40a22.72 22.72 0 0 1 0-32 24.96 24.96 0 0 1 12.96-6.88l68.32-2.72 22.4-64a22.24 22.24 0 0 1 30.56-10.08 21.28 21.28 0 0 1 10.08 10.08l22.4 64 68.48 2.72a24.16 24.16 0 0 1 18.24 16 24.48 24.48 0 0 1-6.08 22.88l-54.88 40 19.68 67.04a22.56 22.56 0 0 1-19.04 26.4h-1.28z" fill="#2c2c2c" p-id="15175"></path><path d="M483.04 1008H112a108.16 108.16 0 0 1-107.68-108.48V123.52A108.16 108.16 0 0 1 112 16h617.92a108.16 108.16 0 0 1 108.16 108.16v273.92a32 32 0 1 1-64 0V123.52A44.32 44.32 0 0 0 729.92 80H112a44.32 44.32 0 0 0-43.68 43.52v776A44.16 44.16 0 0 0 112 944h371.04a32 32 0 0 1 0 64z" fill="#2c2c2c" p-id="15176"></path></svg>