<?xml version="1.0" standalone="no"?><!DOCTYPE svg PUBLIC "-//W3C//DTD SVG 1.1//EN" "http://www.w3.org/Graphics/SVG/1.1/DTD/svg11.dtd"><svg t="1773391749442" class="icon" viewBox="0 0 1024 1024" version="1.1" xmlns="http://www.w3.org/2000/svg" p-id="4864" xmlns:xlink="http://www.w3.org/1999/xlink" width="200" height="200"><path d="M512 0a512 512 0 1 1 0 1024A512 512 0 0 1 512 0z m0 73.142857a438.857143 438.857143 0 1 0 0 877.714286A438.857143 438.857143 0 0 0 512 73.142857z m-5.266286 700.123429c14.921143 0 28.086857 4.388571 38.619429 14.921143 9.654857 9.654857 14.921143 21.942857 14.921143 36.864a48.420571 48.420571 0 0 1-15.798857 37.741714 53.833143 53.833143 0 0 1-37.741715 14.921143 53.833143 53.833143 0 0 1-37.741714-14.921143 50.249143 50.249143 0 0 1-14.921143-37.741714c0-14.921143 4.388571-27.209143 14.921143-36.864a50.249143 50.249143 0 0 1 37.741714-14.921143z m13.165715-534.528c56.173714 0 100.937143 14.921143 135.168 46.518857 32.475429 29.842286 49.152 71.094857 49.152 123.757714 0 39.497143-11.410286 73.728-33.353143 102.692572-8.777143 10.532571-32.475429 33.353143-71.094857 67.584a180.662857 180.662857 0 0 0-41.252572 48.274285 122.514286 122.514286 0 0 0-16.676571 64.073143v20.187429h-70.217143v-20.187429c0-28.964571 5.266286-54.418286 15.798857-76.361143 12.288-26.331429 41.252571-59.684571 88.649143-101.814857 14.043429-14.043429 24.576-24.576 29.842286-31.597714 17.554286-21.942857 26.331429-44.763429 26.331428-69.339429 0-35.108571-10.532571-62.317714-29.842286-81.627428-20.187429-21.065143-49.152-30.72-86.016-30.72-43.885714 0-76.361143 14.043429-97.426285 43.008-19.309714 24.576-28.964571 57.929143-28.964572 100.937143h-69.339428c0-61.44 16.676571-110.592 51.785143-147.456 35.108571-38.619429 84.260571-57.929143 147.456-57.929143z" fill="#2c2c2c" p-id="4865"></path></svg>