<svg t="1779258000283" class="icon" viewBox="0 0 1024 1024" version="1.1" xmlns="http://www.w3.org/2000/svg" p-id="10824" width="200" height="200"><path d="M433.27423 18.383713c42.23934-24.511617 115.1982-24.511617 157.43754 0l290.55546 167.741379c43.327323 24.95961 78.71877 86.142654 78.71877 136.31787v335.35476c0 50.175216-35.391447 111.35826-78.71877 136.31787l-290.55546 167.741379c-21.183669 12.223809-49.023234 18.879705-78.71877 18.879705-29.695536 0-57.535101-6.719895-78.71877-18.879705l-290.55546-167.741379C99.263449 769.155982 64 707.972938 64 657.797722v-335.35476c0-50.175216 35.391447-111.35826 78.71877-136.31787z m421.11342 327.67488a31.9995 31.9995 0 0 0-15.935751 4.287933L582.647896 497.92822a63.999 63.999 0 0 0-31.9995 55.423134v295.419384a31.9995 31.9995 0 0 0 47.99925 27.711567l256.187997-147.389697a63.999 63.999 0 0 0 31.9995-55.551132l-0.383994-295.67538a31.9995 31.9995 0 0 0-31.9995-31.871502zM169.59835 345.994594a31.9995 31.9995 0 0 0-31.9995 31.9995l-0.447993 295.547382a63.999 63.999 0 0 0 32.063499 55.551132l256.187997 147.453696a31.9995 31.9995 0 0 0 47.99925-27.775566V553.415353a63.999 63.999 0 0 0-31.9995-55.423134L185.406103 350.282527a31.9995 31.9995 0 0 0-15.99975-4.287933zM543.9925 80.526742a63.999 63.999 0 0 0-63.999 0L224.189497 228.236434a31.9995 31.9995 0 0 0 0 55.359135l255.740004 148.157685a63.999 63.999 0 0 0 64.126998 0l255.804003-148.157685a31.9995 31.9995 0 0 0 0-55.359135z" p-id="10825" fill="#2c2c2c"></path><path d="M663.67063 504.200122c-24.063624 14.463774-43.263324 52.47918-42.87933 84.606678 0.447993 32.255496 20.47968 46.591272 44.479305 32.127498 24.063624-14.463774 43.327323-52.415181 42.87933-84.606678-0.511992-32.191497-20.351682-46.655271-44.479305-32.127498z m127.998 90.23859c-24.063624 14.399775-43.263324 52.351182-42.87933 84.542679 0.447993 32.255496 20.47968 46.591272 44.479305 32.127498 24.063624-14.463774 43.327323-52.415181 42.87933-84.606678-0.511992-32.191497-20.351682-46.655271-44.479305-32.127498zM234.557335 439.881127c24.063624 14.463774 43.327323 52.415181 42.87933 84.606678-0.447993 32.255496-20.47968 46.591272-44.479305 32.127498-24.063624-14.463774-43.327323-52.415181-42.87933-84.606678 0.511992-32.191497 20.351682-46.655271 44.479305-32.127498z m0 152.95761c24.063624 14.463774 43.327323 52.415181 42.87933 84.606678-0.447993 32.191497-20.47968 46.527273-44.479305 32.127498-24.063624-14.463774-43.327323-52.47918-42.87933-84.670677 0.511992-32.127498 20.351682-46.591272 44.479305-32.063499z m127.998-88.95861c24.063624 14.463774 43.327323 52.415181 42.87933 84.606678-0.447993 32.255496-20.47968 46.591272-44.479305 32.127498-24.063624-14.463774-43.327323-52.415181-42.87933-84.606678 0.511992-32.191497 20.351682-46.655271 44.479305-32.127498z m0 152.95761c24.063624 14.463774 43.327323 52.415181 42.87933 84.606678-0.447993 32.191497-20.47968 46.527273-44.479305 32.127498-24.063624-14.463774-43.327323-52.47918-42.87933-84.670677 0.511992-32.127498 20.351682-46.591272 44.479305-32.063499zM435.1942 249.6121c0 30.015531 35.83944 54.39915 79.934751 54.39915 44.15931 0 80.062749-24.575616 80.062749-54.39915 0-30.07953-35.967438-54.527148-80.062749-54.527148-44.095311 0-79.934751 24.511617-79.934751 54.527148z" p-id="10826" fill="#2c2c2c"></path></svg>