<svg t="1768470554308" class="icon" viewBox="0 0 1024 1024" version="1.1" xmlns="http://www.w3.org/2000/svg" p-id="2483" width="200" height="200"><path d="M0 0m0 0l1024 0q0 0 0 0l0 1024q0 0 0 0l-1024 0q0 0 0 0l0-1024q0 0 0 0Z" fill="#000000" fill-opacity="0" p-id="2484"></path><path d="M490.688 106.688a362.688 362.688 0 0 1 299.776 566.784l144.64 144.704c8.32 8.32 8.32 21.824 0 30.208l-36.16 36.16a21.312 21.312 0 0 1-30.144 0l-140.928-140.8a362.688 362.688 0 1 1-237.184-636.992v-0.064z m0 89.6a273.088 273.088 0 1 0 0 546.112 273.088 273.088 0 0 0 0-546.112z" fill="#000000" p-id="2485"></path></svg>