<?xml version="1.0" standalone="no"?><!DOCTYPE svg PUBLIC "-//W3C//DTD SVG 1.1//EN" "http://www.w3.org/Graphics/SVG/1.1/DTD/svg11.dtd"><svg t="1768199769752" class="icon" viewBox="0 0 1024 1024" version="1.1" xmlns="http://www.w3.org/2000/svg" p-id="4772" xmlns:xlink="http://www.w3.org/1999/xlink" width="200" height="200"><path d="M819.2 107.52H204.8c-77.312 0-138.24 60.928-138.24 138.24v446.976c0 77.312 60.928 138.24 138.24 138.24h167.424s112.64 51.712 154.624 77.312c12.8 6.656 45.056 19.456 64.512-9.728 25.6-51.712-22.528-67.584-22.528-67.584s-93.184-45.056-112.64-54.784c-19.456-9.728-45.056-29.184-83.456-29.184H204.8s-57.856-6.656-57.856-54.784V245.76S153.6 190.976 204.8 190.976h614.4s54.784 0 54.784 54.784v446.976s0 54.784-54.784 54.784h-138.24c-29.184 0-54.784 0-54.784 41.984s29.184 41.984 54.784 41.984h138.24c77.312 0 138.24-60.928 138.24-138.24V245.76c0-77.312-60.928-138.24-138.24-138.24zM259.584 470.528c0 32.256 25.6 54.784 54.784 54.784S368.64 499.712 368.64 470.528c0-32.256-25.6-54.784-54.784-54.784s-54.272 23.04-54.272 54.784z m196.096 0c0 32.256 25.6 54.784 54.784 54.784 32.256 0 54.784-25.6 54.784-54.784 0-32.256-25.6-54.784-54.784-54.784C481.28 412.672 455.68 438.784 455.68 470.528z m305.664 0c0-32.256-25.6-54.784-54.784-54.784-32.256 0-54.784 25.6-54.784 54.784 0 32.256 25.6 54.784 54.784 54.784 29.184 0 54.784-25.6 54.784-54.784z" p-id="4773" fill="#000000"></path></svg>