<?xml version="1.0" standalone="no"?><!DOCTYPE svg PUBLIC "-//W3C//DTD SVG 1.1//EN" "http://www.w3.org/Graphics/SVG/1.1/DTD/svg11.dtd"><svg t="1767666992514" class="icon" viewBox="0 0 1024 1024" version="1.1" xmlns="http://www.w3.org/2000/svg" p-id="6357" xmlns:xlink="http://www.w3.org/1999/xlink" width="200" height="200"><path d="M170.666667 576a21.333333 21.333333 0 0 1 20.992 17.493333L192 597.333333v128a149.333333 149.333333 0 0 0 141.141333 149.12L341.333333 874.666667h128a21.333333 21.333333 0 0 1 3.84 42.325333L469.333333 917.333333H341.333333a192 192 0 0 1-191.786666-182.954666L149.333333 725.333333v-128a21.333333 21.333333 0 0 1 21.333334-21.333333z m400.213333-44.373333c8.533333-13.098667 19.626667-16.085333 33.28-8.96 8.234667 4.821333 11.52 10.368 9.813333 16.64h116.906667l4.608 0.170666c5.674667 0.469333 9.472 1.92 11.392 4.309334 2.432 2.986667 3.626667 6.741333 3.626667 11.306666a18.261333 18.261333 0 0 1-3.626667 11.52c-2.432 3.114667-7.765333 4.693333-16 4.693334h-139.093333l-6.613334 7.68c-2.133333 2.56-4.48 5.12-7.04 7.68 5.12-1.706667 11.648-2.56 19.626667-2.56h94.72l6.485333 0.170666c10.24 0.512 17.706667 2.389333 22.314667 5.589334 5.546667 3.84 8.021333 11.605333 7.466667 23.253333l-2.56 25.173333h14.08l3.669333 0.170667c4.522667 0.426667 7.637333 1.621333 9.344 3.669333 2.133333 2.56 3.2 5.845333 3.2 9.813334 0 4.821333-1.152 8.405333-3.413333 10.666666-2.261333 2.261333-6.698667 3.413333-13.226667 3.413334h-16.64l-2.56 27.733333 4.138667 0.256c5.12 0.469333 8.746667 1.450667 10.794666 2.944 2.56 1.834667 3.84 5.034667 3.84 9.6 0 5.418667-1.194667 8.96-3.626666 10.666667-1.92 1.365333-5.973333 2.176-12.202667 2.474666l-5.504 0.085334-0.853333 4.48a26.368 26.368 0 0 1-1.28 4.053333l4.053333 1.92c1.28 0.725333 2.645333 1.792 4.053333 3.2 4.565333 4.821333 6.485333 9.301333 5.76 13.44-0.725333 4.138667-5.461333 7.594667-14.293333 10.453333l-14.293333 4.693334-16.896 5.930666-9.386667 2.986667-8.917333 3.029333c-2.56 0.554667-3.84 1.578667-3.84 2.986667 0 1.066667 0.725333 1.664 2.133333 1.749333l47.786667-1.322666 66.56-23.466667c11.093333-3.968 19.712-6.272 25.813333-6.826667 6.101333-0.554667 11.178667 2.261333 15.146667 8.533334 3.413333 5.674667 3.925333 10.794667 1.493333 15.36-2.432 4.565333-9.173333 8.661333-20.266667 12.373333-9.386667 3.114667-18.261333 5.973333-26.666666 8.533333l-12.842667 3.84-22.698667 6.4-19.925333 5.333334a1501.013333 1501.013333 0 0 1-35.626667 8.746666l-5.034666 1.493334c-4.992 1.706667-3.2 2.389333 5.461333 1.92l138.24-7.253334-2.986667-3.114666c-8.106667-9.216-7.509333-17.28 1.706667-24.192 6.272-4.565333 11.946667-6.186667 17.066667-4.906667 5.12 1.28 10.965333 4.608 17.493333 10.026667l8.917333 8.064 3.882667 3.669333 10.24 10.24 17.92 19.413333c6.528 7.381333 9.6 13.141333 9.173333 17.28-0.426667 4.138667-3.328 8.021333-8.746666 11.733334a23.04 23.04 0 0 1-16.426667 4.266666 25.301333 25.301333 0 0 1-13.056-7.509333l-11.050667-11.690667-96.853333 3.84v32.853334l-0.170667 7.338666c-0.64 11.605333-2.858667 20.352-6.656 26.154667-4.565333 6.954667-12.245333 11.178667-23.04 12.586667a160.426667 160.426667 0 0 1-34.133333 0.64 242.602667 242.602667 0 0 1-37.973333-6.613334c-8.533333-2.261333-13.781333-5.418667-15.786667-9.386666-2.005333-3.968-1.834667-9.258667 0.426667-15.786667 2.56-7.381333 6.101333-12.074667 10.666666-14.08 4.565333-2.005333 11.818667-1.706667 21.76 0.853333 3.242667 0.938667 6.229333 1.706667 9.002667 2.261334l14.464 2.432c4.565333 0.554667 7.552 0.341333 8.96-0.64s2.133333-3.328 2.133333-7.04v-29.44l-108.8 4.266666-6.869333 0.128a58.453333 58.453333 0 0 1-21.717333-3.754666c-7.125333-2.986667-11.392-6.698667-12.8-11.093334-1.408-4.394667 0.128-8.96 4.693333-13.653333 4.565333-4.693333 12.373333-8.618667 23.466667-11.733333a880.213333 880.213333 0 0 0 51.626666-14.506667h-8.533333l-8.32-0.128a105.770667 105.770667 0 0 1-25.6-3.498667c-8.106667-2.432-13.141333-5.546667-15.146667-9.386666-2.005333-3.84-0.981333-7.978667 2.986667-12.373334 3.968-4.394667 10.965333-8.448 20.906667-12.16l37.333333-13.866666 42.88-15.573334c-4.565333-3.114667-6.954667-7.978667-7.253333-14.506666h-103.68l-6.058667-0.213334c-9.6-0.768-16.469333-3.498667-20.608-8.106666-4.992-5.546667-6.314667-13.994667-4.053333-25.386667l3.84-20.053333h-10.24l-3.669334-0.128c-4.48-0.341333-7.552-1.365333-9.130666-3.072-2.005333-2.133333-2.986667-5.632-2.986667-10.453334 0-4.821333 0.938667-8.405333 2.773333-10.666666 1.834667-2.261333 6.186667-3.413333 13.013334-3.413334h15.36l4.693333-24.746666 0.469333-3.114667a30.293333 30.293333 0 0 1 2.090667-6.272l-4.096 3.669333a23.253333 23.253333 0 0 1-13.397333 5.930667c-5.12 0.128-10.538667-1.92-16.213334-6.186667-4.821333-4.266667-6.954667-8.661333-6.4-13.226666 0.554667-4.565333 3.285333-8.832 8.106667-12.8 9.088-7.381333 16.938667-15.018667 23.466667-22.826667 6.528-7.808 13.226667-16.853333 20.053333-27.093333z m238.08 324.053333c4.309333-0.810667 10.026667 0 17.066667 2.389333l5.546666 2.090667c5.418667 2.005333 10.368 3.968 14.933334 5.973333l13.866666 6.186667c4.693333 2.133333 9.6 4.565333 14.72 7.253333l17.066667 9.173334c7.68 4.821333 12.074667 9.088 13.226667 12.8 1.152 3.712-0.298667 9.088-4.266667 16.213333-3.968 6.528-9.088 9.813333-15.36 9.813333s-14.08-2.261333-23.466667-6.826666a425.386667 425.386667 0 0 0-25.6-12.16c-8.832-3.84-17.92-7.893333-27.306666-12.16-9.088-3.968-14.634667-8.106667-16.64-12.373334-2.005333-4.266667-0.981333-10.112 2.986666-17.493333 3.413333-6.272 7.808-9.898667 13.226667-10.88z m-184.490667 0.853333l3.157334 0.213334c4.821333 0.853333 9.088 4.394667 12.8 10.666666 3.413333 5.973333 4.394667 11.52 2.986666 16.64-1.408 5.12-5.674667 9.258667-12.8 12.373334-10.794667 5.12-21.034667 9.6-30.72 13.44-7.253333 2.858667-15.488 5.888-24.661333 8.96l-9.472 3.2c-11.946667 3.968-20.352 5.333333-25.173333 4.053333-4.821333-1.28-8.661333-5.205333-11.52-11.733333-2.858667-6.826667-2.688-12.586667 0.426666-17.28 3.114667-4.693333 8.533333-8.448 16.213334-11.306667l22.186666-8.234667 38.826667-16.085333c7.253333-3.2 13.226667-4.821333 17.749333-4.906667z m148.650667-309.077333l4.266667-11.562667c4.266667-13.653333 13.525333-18.901333 27.733333-15.786666 9.685333 2.005333 15.232 5.12 16.64 9.386666 1.408 4.266667 0.426667 10.794667-2.986667 19.626667-0.298667 0.298667-0.426667 0.725333-0.426666 1.28h92.16l4.309333 0.256c5.333333 0.64 9.088 2.56 11.264 5.717333a24.448 24.448 0 0 1 4.053333 14.08 23.04 23.04 0 0 1-4.053333 13.226667c-2.688 3.968-7.893333 5.973333-15.573333 5.973333h-10.24l-2.517334 11.52a289.28 289.28 0 0 1-9.429333 32 149.589333 149.589333 0 0 1-19.626667 37.12c6.528 4.821333 13.44 9.301333 20.693334 13.44l11.136 6.016 11.690666 5.717334c10.794667 4.821333 16.853333 10.325333 18.133334 16.426666a24.448 24.448 0 0 1-4.053334 18.56c-3.968 6.528-8.874667 9.6-14.72 9.173334-5.845333-0.426667-13.866667-3.498667-24.106666-9.173334a274.858667 274.858667 0 0 1-45.653334-29.866666c-15.36 13.354667-34.005333 25.045333-55.893333 34.986666-9.386667 4.565333-16.725333 5.76-21.973333 3.626667a23.253333 23.253333 0 0 1-12.16-11.733333 19.754667 19.754667 0 0 1-0.426667-15.573334c1.578667-4.224 5.205333-7.722667 10.794667-10.581333l4.565333-2.005333a176.981333 176.981333 0 0 0 46.08-25.6 276.48 276.48 0 0 1-35.84-49.493334c-4.821333 5.674667-9.813333 8.746667-14.933333 9.173334a30.72 30.72 0 0 1-17.066667-4.48c-5.674667-3.114667-8.618667-7.125333-8.746667-11.946667-0.128-4.821333 2.645333-10.965333 8.32-18.346667 6.528-8.234667 12.672-17.834667 18.346667-28.8 3.797333-7.296 7.210667-14.762667 10.24-22.357333z m-170.24 118.570667h-14.08l-3.413333 21.76-0.170667 2.133333c0.213333 2.56 2.261333 3.84 6.144 3.84h57.173333a44.629333 44.629333 0 0 1-7.253333-2.56 172.8 172.8 0 0 0-15.146667-5.12l-16-4.693333c-4.821333-1.152-7.808-3.114667-8.96-5.973334a8.234667 8.234667 0 0 1-0.170666-6.144l1.024-1.962666c0-0.298667 0.298667-0.725333 0.853333-1.28z m79.786667 0h-58.88l12.074666 3.84c7.978667 2.645333 15.786667 5.504 23.338667 8.533333 8.533333 3.114667 11.221333 7.808 8.106667 14.08-0.554667 0.554667-0.853333 0.981333-0.853334 1.28h13.226667l2.986667-27.733333z m177.493333-76.373334h-58.88l5.802667 10.538667c3.882667 6.869333 7.936 13.397333 12.117333 19.541333 6.272 9.258667 13.098667 17.578667 20.48 24.96 10.24-15.36 17.066667-33.706667 20.48-55.04z m-246.186667 20.906667h-10.666666l-2.261334 0.256c-1.962667 0.554667-3.072 1.877333-3.285333 4.010667l-4.266667 23.466666h60.586667l-3.413333-1.28-29.866667-8.96c-6.528-2.005333-9.898667-4.608-10.026667-7.893333a13.568 13.568 0 0 1 0.938667-5.888l1.408-2.432c0-0.298667 0.298667-0.725333 0.853333-1.28z m70.4 0h-56.32l4.693334 1.28 17.493333 5.973333c5.973333 2.005333 11.818667 4.138667 17.493333 6.4 5.418667 2.261333 8.533333 4.266667 9.386667 5.973334 0.853333 1.706667 0.298667 4.394667-1.706667 8.106666h9.813334l2.730666-24.576a3.84 3.84 0 0 0-0.384-2.090666c-0.426667-0.725333-1.493333-1.066667-3.2-1.066667zM682.666667 192a192 192 0 0 1 191.786666 182.954667L874.666667 384v128a21.333333 21.333333 0 0 1-42.325334 3.84L832 512V384a149.333333 149.333333 0 0 0-141.141333-149.12L682.666667 234.666667h-128a21.333333 21.333333 0 0 1-3.84-42.325334L554.666667 192h128z m-564.906667 31.701333l4.48-0.341333c7.552-1.28 14.72-5.632 21.546667-13.013333 3.968-4.266667 8.618667-10.154667 13.866666-17.706667l7.722667-11.562667 7.424-12.117333h32c1.706667 6.272 2.986667 12.074667 3.84 17.493333 2.005333 10.538667 5.034667 17.621333 9.173333 21.333334 4.138667 3.712 10.325333 4.821333 18.56 3.413333 9.685333-1.408 15.872-4.394667 18.56-8.96s3.2-12.672 1.493334-24.32L256 176.384l-0.938667-4.608-0.768-2.816h26.453334c9.088 0 15.786667-1.408 20.053333-4.266667 4.266667-2.858667 6.4-8.405333 6.4-16.64s-2.133333-13.525333-6.4-15.786666a36.821333 36.821333 0 0 0-14.890667-3.285334L280.746667 128.853333l-72.490667-0.298666A109.568 109.568 0 0 1 193.706667 128c7.125333-17.621333 3.285333-28.586667-11.52-32.853333-7.978667-2.858667-14.378667-2.901333-19.2-0.213334-4.821333 2.688-9.088 8.746667-12.8 18.133334-1.706667 4.821333-3.968 10.112-6.826667 15.786666s-5.973333 11.392-9.386667 17.066667a235.605333 235.605333 0 0 1-22.613333 31.146667c-7.68 7.68-12.586667 14.933333-14.72 21.76a16.64 16.64 0 0 0 4.48 17.92 25.685333 25.685333 0 0 0 16.64 6.954666z m182.186667-19.754666c13.354667 11.392 26.752 9.088 40.106666-6.826667 3.114667-4.821333 6.101333-9.6 8.96-14.293333l4.181334-7.082667 3.925333-7.210667h37.546667l1.493333 7.893334a102.4 102.4 0 0 0 1.493333 7.04c1.706667 10.794667 4.693333 17.834667 8.96 21.12 3.413333 2.602667 8.106667 3.712 14.08 3.328l4.693334-0.554667a43.093333 43.093333 0 0 0 11.733333-2.773333 14.378667 14.378667 0 0 0 6.826667-5.76 19.541333 19.541333 0 0 0 2.56-9.6 79.445333 79.445333 0 0 0-1.066667-14.293334 13.013333 13.013333 0 0 1-0.938667-3.584l-0.341333-2.816h32.426667c8.234667 0 14.592-1.194667 18.986666-3.626666 4.394667-2.432 6.613333-7.765333 6.613334-16s-2.218667-13.653333-6.613334-16.213334a32.981333 32.981333 0 0 0-14.250666-3.669333l-4.736-0.170667-100.821334-0.384c2.816-9.728 3.328-17.109333 1.194667-22.229333s-7.168-8.661333-15.146667-10.666667c-7.68-2.261333-13.952-2.005333-18.773333 0.853334-4.821333 2.858667-8.661333 9.258667-11.52 19.2-2.858667 8.832-6.4 17.152-10.666667 24.96-3.2 5.888-7.210667 12.373333-11.989333 19.626666l-5.077333 7.466667c-6.528 9.088-10.24 16.341333-11.093334 21.76-0.853333 5.418667 1.578667 10.24 7.253334 14.506667zM224.725333 263.978667l3.114667-0.512c4.821333-1.28 9.088-5.461333 12.8-12.586667 5.888-11.52 3.242667-20.181333-7.893333-25.898667l-12.373334-5.333333-18.176-6.741333-16.170666-5.546667c-8.832-3.114667-15.701333-4.48-20.693334-4.053333-4.992 0.426667-9.173333 4.352-12.586666 11.733333-3.712 6.528-4.565333 12.501333-2.56 17.92 1.664 4.522667 5.802667 8.021333 12.373333 10.538667l4.266667 1.408c6.826667 2.261333 13.141333 4.48 18.986666 6.613333l9.984 3.882667c3.712 1.536 7.850667 3.285333 12.416 5.290666a40.234667 40.234667 0 0 0 16.512 3.285334z m203.733334 238.549333l7.594666-0.341333c14.506667-0.554667 25.045333-4.608 31.573334-12.16 5.589333-6.442667 8.832-16.64 9.6-30.506667l0.213333-7.253333V254.72c0-13.952-3.328-24.192-10.026667-30.72-5.717333-5.589333-15.274667-8.832-28.629333-9.6l-6.997333-0.213333H281.6c-10.794667 0-18.048 2.005333-21.76 5.973333a22.272 22.272 0 0 0-5.546667 15.786667c0 5.973333 1.834667 11.093333 5.546667 15.36 3.072 3.541333 8.618667 5.632 16.64 6.229333l5.12 0.170667h131.413333c5.674667 0 9.472 0.725333 11.306667 2.133333a6.826667 6.826667 0 0 1 2.474667 3.968l0.298666 2.858667v181.76a22.186667 22.186667 0 0 1-0.64 5.76 5.930667 5.930667 0 0 1-2.773333 3.626666 12.16 12.16 0 0 1-6.186667 1.28c-2.688 0-6.485333-0.554667-11.306666-1.706666-11.946667-2.56-20.608-2.773333-26.026667-0.64s-8.832 7.338667-10.24 15.573333-0.853333 14.293333 1.706667 18.133333c2.56 3.84 7.68 6.485333 15.36 7.893334l14.848 2.176c4.48 0.597333 8.490667 1.109333 12.032 1.450666 4.736 0.469333 9.6 0.682667 14.592 0.554667z m-281.258667 3.072c7.978667 0 14.165333-2.048 18.56-6.186667a20.48 20.48 0 0 0 6.357333-12.501333l0.256-3.925333V275.2a25.258667 25.258667 0 0 0-6.613333-17.28c-4.394667-4.992-10.581333-7.466667-18.56-7.466667a23.808 23.808 0 0 0-18.133333 7.466667 24.661333 24.661333 0 0 0-6.741334 13.44l-0.298666 3.84v207.786667c0 6.826667 2.346667 12.288 7.04 16.426666a26.453333 26.453333 0 0 0 18.133333 6.186667z m206.933333-52.053333c10.24 0 18.218667-0.853333 23.893334-2.56a25.216 25.216 0 0 0 12.586666-7.466667 23.296 23.296 0 0 0 4.906667-12.586667c0.384-3.413333 0.64-7.210667 0.768-11.392l0.085333-6.528V316.586667c0-14.208-3.2-24.405333-9.6-30.506667-5.589333-5.333333-15.616-8.362667-30.037333-9.045333L350.293333 276.906667H248.746667c-9.386667 0-17.066667 0.768-23.04 2.346666a29.866667 29.866667 0 0 0-13.866667 7.253334 26.368 26.368 0 0 0-6.826667 12.373333c-0.853333 3.328-1.408 7.04-1.706666 11.178667l-0.213334 6.528v96.426666c0 7.381333 0.341333 13.738667 1.066667 18.986667a23.637333 23.637333 0 0 0 5.12 12.586667c2.688 3.114667 6.826667 5.418667 12.373333 6.826666 4.181333 1.066667 9.472 1.706667 15.957334 2.005334l6.869333 0.128H354.133333z m-2.986666-107.52H248.32V324.266667c0-3.114667 0.64-4.992 1.92-5.546667a12.586667 12.586667 0 0 1 3.968-0.768l3.072-0.085333h85.333333c3.968 0 6.4 0.426667 7.253334 1.28a4.693333 4.693333 0 0 1 1.152 2.645333l0.128 2.048v22.186667z m-7.68 66.56H256.426667c-3.712 0-5.973333-0.426667-6.826667-1.28-0.554667-0.554667-0.938667-1.536-1.152-2.858667L248.32 406.186667v-23.893334h102.826667v24.746667c0 2.261333-0.426667 3.754667-1.28 4.48-0.853333 0.725333-2.986667 1.066667-6.4 1.066667z" fill="#2c2c2c" p-id="6358"></path></svg>