<?xml version="1.0" standalone="no"?><!DOCTYPE svg PUBLIC "-//W3C//DTD SVG 1.1//EN" "http://www.w3.org/Graphics/SVG/1.1/DTD/svg11.dtd"><svg t="1777793969696" class="icon" viewBox="0 0 1024 1024" version="1.1" xmlns="http://www.w3.org/2000/svg" p-id="13299" xmlns:xlink="http://www.w3.org/1999/xlink" width="200" height="200"><path d="M795.264 74.666667H228.736A122.218667 122.218667 0 0 0 106.666667 196.757333v630.506667a122.24 122.24 0 0 0 122.069333 122.090667h566.528A122.218667 122.218667 0 0 0 917.333333 827.264V196.757333A122.218667 122.218667 0 0 0 795.264 74.666667zM170.666667 827.242667V714.666667h53.333333a32 32 0 1 0 0-64H170.666667v-106.666667h53.333333a32 32 0 1 0 0-64H170.666667v-106.666667h53.333333a32 32 0 1 0 0-64H170.666667V196.757333A58.154667 58.154667 0 0 1 228.736 138.666667H298.666667v746.666666h-69.930667A58.154667 58.154667 0 0 1 170.666667 827.242667z m682.666666 0a58.154667 58.154667 0 0 1-58.069333 58.090666H362.666667v-746.666666h432.597333A58.154667 58.154667 0 0 1 853.333333 196.757333v630.485334z" fill="#232323" p-id="13300"></path><path d="M734.378667 213.333333h-210.112A76.373333 76.373333 0 0 0 448 289.6v103.466667A76.373333 76.373333 0 0 0 524.288 469.333333h210.112A76.373333 76.373333 0 0 0 810.666667 393.066667v-103.466667A76.373333 76.373333 0 0 0 734.378667 213.333333zM746.666667 393.066667a12.288 12.288 0 0 1-12.288 12.266666h-210.112a12.288 12.288 0 0 1-12.266667-12.266666v-103.466667c0-6.762667 5.504-12.266667 12.288-12.266667h210.112c6.762667 0 12.266667 5.504 12.266667 12.266667v103.466667z" fill="#232323" p-id="13301"></path></svg>