<?xml version="1.0" standalone="no"?><!DOCTYPE svg PUBLIC "-//W3C//DTD SVG 1.1//EN" "http://www.w3.org/Graphics/SVG/1.1/DTD/svg11.dtd"><svg t="1777793681121" class="icon" viewBox="0 0 1024 1024" version="1.1" xmlns="http://www.w3.org/2000/svg" p-id="12094" xmlns:xlink="http://www.w3.org/1999/xlink" width="200" height="200"><path d="M983.31306667 285.62773333l-206.71146667 206.71146667 150.1184 164.2496c19.2512 21.02613333 20.48 51.06346667 3.072 67.03786667-17.54453333 16.04266667-47.3088 11.94666667-66.42346667-8.94293334l-147.79733333-161.3824-314.7776 314.7776a43.96373333 43.96373333 0 0 1-62.19093333-0.13653333L40.68693333 570.02666667a43.89546667 43.89546667 0 1 1 62.19093334-62.19093334l266.8544 266.8544 286.5152-286.37866666L499.02933333 316.34773333c-19.18293333-21.16266667-20.54826667-51.13173333-3.072-67.1744 17.54453333-16.04266667 47.3088-11.94666667 66.42346667 8.94293334l154.76053333 169.09653333 203.9808-203.9808a44.032 44.032 0 1 1 62.19093334 62.39573333z m0 0" p-id="12095" fill="#2c2c2c"></path></svg>